<svg xmlns="http://www.w3.org/2000/svg" version="1.1" xmlns:xlink="http://www.w3.org/1999/xlink" xmlns:svgjs="http://svgjs.dev/svgjs" width="1500" height="939" viewBox="0 0 1500 939"><g transform="matrix(1,0,0,1,-0.9090909090909918,-1.5145161290323017)"><svg viewBox="0 0 396 248" data-background-color="#ffffff" preserveAspectRatio="xMidYMid meet" height="939" width="1500" xmlns="http://www.w3.org/2000/svg" xmlns:xlink="http://www.w3.org/1999/xlink"><g id="tight-bounds" transform="matrix(1,0,0,1,0.2400000000000091,0.4000000000000057)"><svg viewBox="0 0 395.52 247.2" height="247.2" width="395.52"><g><svg></svg></g><g><svg viewBox="0 0 395.52 247.2" height="247.2" width="395.52"><g transform="matrix(1,0,0,1,39.55199999999999,62.13613053613052)"><svg viewBox="0 0 316.416 122.92773892773894" height="122.92773892773894" width="316.416"><g><svg viewBox="0 0 316.416 122.92773892773894" height="122.92773892773894" width="316.416"><g><svg viewBox="0 0 316.416 122.92773892773894" height="122.92773892773894" width="316.416"><g><svg viewBox="0 0 316.416 122.92773892773894" height="122.92773892773894" width="316.416"><g id="textblocktransform"><svg viewBox="0 0 316.416 122.92773892773894" height="122.92773892773894" width="316.416" id="textblock"><g><svg viewBox="0 0 316.416 122.92773892773894" height="122.92773892773894" width="316.416"><g transform="matrix(1,0,0,1,0,0)"><svg width="316.416" viewBox="-4.7 -36 128.69 50" height="122.92773892773894" data-palette-color="#637cd6"><path d="M-3.15 14L-3.15 14Q-3.55 14-3.93 13.58-4.3 13.15-4.5 12.68-4.7 12.2-4.7 12.1L-4.7 12.1Q-4 9.65-3.33 7.73-2.65 5.8-1.98 3.78-1.3 1.75-0.65-0.98 0-3.7 0.7-7.75 1.4-11.8 2.1-17.8L2.1-17.8Q2.15-18.25 2.3-18.45 2.45-18.65 3.05-18.65L3.05-18.65Q4.35-18.65 4.9-17.93 5.45-17.2 5.45-16.35L5.45-16.35Q5.45-15.65 5.15-13.85 4.85-12.05 4.3-9.6L4.3-9.6Q5.15-11.25 6.43-12.95 7.7-14.65 9.35-15.8 11-16.95 12.95-16.95L12.95-16.95Q15.15-16.95 16.57-15.38 18-13.8 18-11.25L18-11.25Q18-9.3 17.13-7.13 16.25-4.95 14.68-3.03 13.1-1.1 10.95 0.1 8.8 1.3 6.2 1.3L6.2 1.3Q4.9 1.3 4.1 1 3.3 0.7 3.3 0.4L3.3 0.4Q3.3 0.2 3.68 0.18 4.05 0.15 4.55 0.15L4.55 0.15Q6.55 0.15 8.38-0.83 10.2-1.8 11.65-3.4 13.1-5 13.93-6.95 14.75-8.9 14.75-10.8L14.75-10.8Q14.75-12.4 14.08-13.53 13.4-14.65 11.9-14.65L11.9-14.65Q10.6-14.65 9.33-13.83 8.05-13 6.93-11.73 5.8-10.45 4.93-9.08 4.05-7.7 3.6-6.6L3.6-6.6Q2.7-2.85 1.8 0.63 0.9 4.1 0.08 6.93-0.75 9.75-1.43 11.55-2.1 13.35-2.55 13.75L-2.55 13.75Q-2.8 14-3.15 14ZM23 1.6L23 1.6Q20.85 1.6 19.95 0.28 19.05-1.05 19.05-2.95L19.05-2.95Q19.05-4.5 19.55-6.15 20.05-7.8 20.87-9.25 21.7-10.7 22.72-11.6 23.75-12.5 24.8-12.5L24.8-12.5Q25.05-12.5 25.32-12.43 25.6-12.35 25.85-12.25L25.85-12.25Q25.4-11.85 24.77-10.78 24.15-9.7 23.6-8.33 23.05-6.95 22.67-5.6 22.3-4.25 22.3-3.3L22.3-3.3Q22.3-1.8 22.8-1.13 23.3-0.45 24.1-0.45L24.1-0.45Q25.15-0.45 26.6-1.58 28.05-2.7 29.45-4.45L29.45-4.45Q28.05-5.6 27.27-7.48 26.5-9.35 26.5-11.3L26.5-11.3Q26.5-12.95 27.07-14.4 27.65-15.85 28.75-16.73 29.85-17.6 31.4-17.6L31.4-17.6Q33.45-17.6 34.15-16.5 34.85-15.4 34.85-13.75L34.85-13.75Q34.85-11.8 33.9-9.43 32.95-7.05 31.5-4.85L31.5-4.85Q32.4-4.35 33.4-4.35L33.4-4.35Q34.2-4.35 35.2-4.67 36.2-5 37.17-5.8 38.15-6.6 38.75-7.95L38.75-7.95 39.35-7.45Q38.35-5.1 36.52-4.13 34.7-3.15 33.05-3.15L33.05-3.15Q32.4-3.15 31.8-3.28 31.2-3.4 30.65-3.65L30.65-3.65Q28.95-1.4 26.92 0.1 24.9 1.6 23 1.6ZM30.35-5.75L30.35-5.75Q31.6-7.6 32.42-9.63 33.25-11.65 33.25-13.45L33.25-13.45Q33.25-14.9 32.82-15.58 32.4-16.25 31.75-16.25L31.75-16.25Q30.75-16.25 29.7-14.8 28.65-13.35 28.65-11.15L28.65-11.15Q28.65-9.7 29.07-8.22 29.5-6.75 30.35-5.75ZM43.05 2.55L43.05 2.55Q40.7 2.55 39.32 1.53 37.95 0.5 37.37-1 36.8-2.5 36.8-4L36.8-4Q36.8-5.5 37.2-6.3 37.59-7.1 38.17-7.5 38.75-7.9 39.27-8.1 39.8-8.3 40-8.5L40-8.5Q41.5-10.15 42.75-11.95 44-13.75 44.95-15.75L44.95-15.75 44.95-16.35Q44.95-18.2 45.57-18.98 46.2-19.75 46.9-19.75L46.9-19.75Q47.3-19.75 47.5-19.55 47.7-19.35 47.7-19.1L47.7-19.1Q47.7-18.85 47.55-18.3 47.4-17.75 47.4-16.9L47.4-16.9Q47.4-15.25 48.05-13.33 48.7-11.4 49.34-9.28 50-7.15 50-4.85L50-4.85Q50-4.2 49.92-3.58 49.84-2.95 49.7-2.4L49.7-2.4Q51.45-2.7 53-3.98 54.55-5.25 56-8.05L56-8.05 56.45-7.55Q55.5-4.8 53.59-3.38 51.7-1.95 49.45-1.6L49.45-1.6Q48.65 0.55 46.92 1.55 45.2 2.55 43.05 2.55ZM43.15 0.8L43.15 0.8Q43.75 0.8 44.75 0.4 45.75 0 46.3-1.65L46.3-1.65Q44.2-2.05 42.57-3.3 40.95-4.55 40.15-5.8L40.15-5.8Q39.05-5.75 39.05-4.05L39.05-4.05Q39.05-2.25 40.12-0.73 41.2 0.8 43.15 0.8ZM46.55-2.45L46.55-2.45Q46.65-2.95 46.7-3.5 46.75-4.05 46.75-4.8L46.75-4.8Q46.75-7.15 46.17-9.47 45.59-11.8 45.2-13.85L45.2-13.85Q44.05-11.95 42.77-10.23 41.5-8.5 40.34-7.35L40.34-7.35Q41.09-5.75 42.67-4.35 44.25-2.95 46.55-2.45ZM59.29 2.3L59.29 2.3Q57.14 2.3 55.99 1.05 54.84-0.2 54.84-2.65L54.84-2.65Q54.84-4.85 55.67-8.08 56.49-11.3 57.74-14.7L57.74-14.7Q57.24-14.8 56.79-14.88 56.34-14.95 55.94-15.1L55.94-15.1 55.94-16Q56.34-15.95 56.89-15.9 57.44-15.85 58.14-15.8L58.14-15.8Q59.19-18.5 60.39-21.03 61.59-23.55 62.77-25.53 63.94-27.5 65.02-28.68 66.09-29.85 66.84-29.85L66.84-29.85Q67.24-29.85 67.57-29.58 67.89-29.3 67.89-28.75L67.89-28.75Q67.89-27.9 66.84-25.98 65.79-24.05 64.24-21.4 62.69-18.75 61.24-15.65L61.24-15.65Q61.69-15.65 62.17-15.65 62.64-15.65 63.09-15.65L63.09-15.65Q64.74-15.65 66.57-15.7 68.39-15.75 70.24-15.95L70.24-15.95 70.24-15.05Q67.49-14.75 65.32-14.6 63.14-14.45 61.44-14.45L61.44-14.45Q61.24-14.45 61.07-14.45 60.89-14.45 60.69-14.45L60.69-14.45Q59.54-11.8 58.74-9 57.94-6.2 57.94-3.55L57.94-3.55Q57.94-1.4 58.59-0.48 59.24 0.45 60.74 0.45L60.74 0.45Q63.34 0.45 65.84-1.85 68.34-4.15 70.24-8.1L70.24-8.1 70.89-7.6Q69.69-4.8 67.87-2.55 66.04-0.3 63.84 1 61.64 2.3 59.29 2.3ZM67.39 4.4L67.39 4.4Q67.59 2.55 68.72 1.73 69.84 0.9 71.64 0.65 73.44 0.4 75.54 0.4L75.54 0.4Q76.44-1.55 77.34-4.38 78.24-7.2 79.07-10.45 79.89-13.7 80.69-17.07 81.49-20.45 82.19-23.55 82.89-26.65 83.52-29.13 84.14-31.6 84.64-33.05L84.64-33.05Q82.04-33 80.22-32.9 78.39-32.8 76.82-32.6 75.24-32.4 73.39-32.05L73.39-32.05Q73.74-33.95 76.14-34.93 78.54-35.9 83.59-35.9L83.59-35.9Q86.09-35.9 88.67-35.7 91.24-35.5 93.39-35.27 95.54-35.05 96.69-34.85L96.69-34.85Q95.49-33.65 94.17-33.38 92.84-33.1 91.84-33.1L91.84-33.1Q90.29-33.1 88.92-33.1 87.54-33.1 86.39-33.05L86.39-33.05Q86.19-32 85.79-29.78 85.39-27.55 84.84-24.68 84.29-21.8 83.69-18.73 83.09-15.65 82.52-12.88 81.94-10.1 81.44-8.1L81.44-8.1Q80.64-4.9 79.64-2.7 78.64-0.5 77.24 0.45L77.24 0.45Q79.84 0.6 82.79 0.98 85.74 1.35 88.09 1.4L88.09 1.4Q86.64 2.85 85.07 3.2 83.49 3.55 82.44 3.55L82.44 3.55Q80.44 3.55 78.52 3.58 76.59 3.6 74.72 3.65 72.84 3.7 71.02 3.88 69.19 4.05 67.39 4.4ZM101.59 4.35L101.59 4.35Q99.34 4.35 98.49 3.35 97.64 2.35 97.64 0.8L97.64 0.8Q97.64-0.65 98.24-2.65 98.84-4.65 99.49-6.5L99.49-6.5Q100.34-8.95 101.54-12.25 102.74-15.55 104.11-19.15 105.49-22.75 106.91-26.25 108.34-29.75 109.69-32.6L109.69-32.6Q106.24-32.55 103.91-32.45 101.59-32.35 99.74-32.18 97.89-32 95.69-31.6L95.69-31.6Q95.84-33.3 97.44-34.25 99.04-35.2 101.74-35.6 104.44-36 107.89-36L107.89-36Q111.34-36 114.06-35.73 116.79-35.45 119.19-35.2 121.59-34.95 123.99-34.9L123.99-34.9Q122.29-33.35 120.09-32.95 117.89-32.55 115.44-32.55L115.44-32.55Q114.89-32.55 114.29-32.58 113.69-32.6 113.09-32.6 112.49-32.6 111.89-32.6L111.89-32.6Q110.29-28.6 108.21-22.5 106.14-16.4 104.04-8.75L104.04-8.75Q103.34-6.1 102.76-4 102.19-1.9 101.86-0.15 101.54 1.6 101.54 3.25L101.54 3.25Q101.54 3.5 101.54 3.8 101.54 4.1 101.59 4.35Z" opacity="1" transform="matrix(1,0,0,1,0,0)" fill="#637cd6" class="wordmark-text-0" data-fill-palette-color="primary" id="text-0"></path></svg></g></svg></g></svg></g></svg></g></svg></g></svg></g></svg></g><g><path d="M0 247.2v-247.2h395.52v247.2zM384.434 236.114v-225.028h-373.348v225.028z" fill="#332885" fill-rule="nonzero" stroke="none" stroke-width="1" stroke-linecap="butt" stroke-linejoin="miter" stroke-miterlimit="10" stroke-dasharray="" stroke-dashoffset="0" font-family="none" font-weight="none" font-size="none" text-anchor="none" style="mix-blend-mode: normal" data-fill-palette-color="tertiary"></path></g></svg></g><defs></defs></svg><rect width="395.52" height="247.2" fill="none" stroke="none" visibility="hidden"></rect></g></svg></g></svg>